<svg width="45" height="34" viewBox="0 0 45 34" fill="none" xmlns="http://www.w3.org/2000/svg">
<path d="M43.743 20.7676C43.8895 21.7932 43.7577 22.5843 43.3474 23.141C42.9665 23.6978 42.5563 24.2692 42.1167 24.8552C42.1167 26.7599 42.0142 28.6205 41.8091 30.4373C41.604 32.254 40.593 33.2649 38.7763 33.47C37.5163 33.7044 36.1684 33.7631 34.7326 33.6458C33.3261 33.5286 31.8903 33.47 30.4252 33.47C29.048 33.47 27.6855 33.47 26.3376 33.47C25.019 33.47 23.6857 33.47 22.3378 33.47C20.9899 33.47 19.6274 33.47 18.2502 33.47C16.873 33.47 15.4372 33.47 13.9428 33.47C12.6828 33.47 11.4082 33.4993 10.1189 33.5579C8.85889 33.6165 7.6868 33.5726 6.60262 33.4261C5.54775 33.2503 4.63939 32.9279 3.87753 32.4591C3.14498 31.961 2.6908 31.1845 2.51498 30.1296C2.36847 29.3091 2.38312 28.4594 2.55894 27.5803C2.76405 26.6719 2.7494 25.8222 2.51498 25.031C2.45638 24.5036 2.19266 24.0934 1.72383 23.8003C1.25499 23.5073 0.991276 23.0385 0.932672 22.3938C0.786161 21.4269 0.859417 20.6943 1.15244 20.1962C1.47476 19.6688 1.92894 19.0827 2.51498 18.4381C2.51498 17.9106 2.51498 17.3978 2.51498 16.8997C2.51498 16.4016 2.51498 15.9327 2.51498 15.4932C2.36847 14.9951 2.07545 14.746 1.63592 14.746C1.22569 14.7167 0.991276 14.4823 0.932672 14.0428C0.786161 13.4567 0.976625 12.9586 1.50406 12.5483C2.0315 12.1088 2.36847 11.64 2.51498 11.1418C2.60289 9.94046 2.85196 8.76838 3.26219 7.62559C3.70172 6.48281 4.30241 5.47189 5.06427 4.59283C5.82612 3.68446 6.73448 2.93726 7.78936 2.35122C8.87354 1.73588 10.0896 1.35495 11.4375 1.20844C13.3421 0.974021 15.1442 0.915417 16.8437 1.03263C18.5432 1.14983 20.3453 1.20844 22.2499 1.20844C24.0081 1.20844 25.7808 1.14983 27.5683 1.03263C29.385 0.915417 31.1724 0.974021 32.9305 1.20844C34.9817 1.41355 36.6812 2.10215 38.0291 3.27423C39.4063 4.44632 40.4319 5.79421 41.1058 7.31792C41.3109 7.84536 41.4428 8.4314 41.5014 9.07605C41.5893 9.69139 41.7505 10.3214 41.9849 10.966C42.2779 11.64 42.8053 12.4311 43.5672 13.3395C44.3291 14.2479 43.8016 14.9218 41.9849 15.3613C42.0435 15.9474 42.0142 16.4309 41.897 16.8118C41.8091 17.1927 41.8384 17.6323 41.9849 18.1304C42.1314 18.8043 42.4244 19.3025 42.864 19.6248C43.3035 19.9471 43.5965 20.328 43.743 20.7676ZM11.5693 2.79075C9.25446 3.08377 7.52564 3.97748 6.38286 5.47189C5.24008 6.9663 4.49287 8.65117 4.14125 10.5265C7.15936 10.5265 10.1628 10.5265 13.1516 10.5265C16.1698 10.5265 19.1732 10.5265 22.162 10.5265C25.1801 10.5265 28.1836 10.5265 31.1724 10.5265C34.1905 10.5265 37.2087 10.5265 40.2268 10.5265C39.9337 8.79768 39.2158 7.15676 38.0731 5.60375C36.9303 4.02144 35.2601 3.08377 33.0624 2.79075C31.5387 2.64424 29.8245 2.61494 27.9199 2.70284C26.0446 2.76145 24.1546 2.79075 22.2499 2.79075C20.3453 2.79075 18.4407 2.76145 16.536 2.70284C14.6314 2.61494 12.9758 2.64424 11.5693 2.79075ZM3.83358 12.1528C3.68707 12.2993 3.4966 12.4897 3.26219 12.7242C3.05707 12.9293 2.95452 13.1783 2.95452 13.4714C3.83358 13.9695 4.82985 14.0867 5.94333 13.823C7.08611 13.5593 7.99447 13.2516 8.66842 12.9C9.7526 13.9255 11.1591 14.409 12.8879 14.3504C14.646 14.2625 16.1112 13.779 17.2832 12.9C18.6018 13.9841 20.2867 14.5262 22.3378 14.5262C24.389 14.5262 26.1178 13.9841 27.5243 12.9C28.6085 13.8376 30.0296 14.3065 31.7878 14.3065C33.5752 14.3065 35.0256 13.8376 36.1391 12.9C36.7252 13.3395 37.5749 13.6765 38.6884 13.9109C39.8019 14.116 40.7982 13.9695 41.6772 13.4714C41.4721 12.6509 41.0179 12.226 40.3147 12.1967C39.6407 12.1674 38.9814 12.1528 38.3368 12.1528C35.5531 12.1528 32.6815 12.1528 29.722 12.1528C26.7625 12.1528 23.7883 12.1528 20.7995 12.1528C17.84 12.1528 14.9244 12.1528 12.0528 12.1528C9.18121 12.1528 6.44146 12.1528 3.83358 12.1528ZM40.2268 15.669C39.3477 15.7276 38.5858 15.6544 37.9412 15.4493C37.3259 15.2148 36.7252 14.9951 36.1391 14.79C35.1136 15.7276 33.6484 16.1672 31.7438 16.1085C29.8392 16.0206 28.3741 15.5811 27.3485 14.79C26.0592 15.8741 24.3304 16.3869 22.162 16.3283C20.023 16.2404 18.2942 15.7276 16.9756 14.79C16.0379 15.7276 14.6021 16.1672 12.6682 16.1085C10.7342 16.0206 9.25446 15.5811 8.22889 14.79C7.70145 15.083 7.11541 15.3174 6.47077 15.4932C5.85542 15.669 5.07892 15.7276 4.14125 15.669C4.14125 16.1085 4.14125 16.5481 4.14125 16.9876C4.14125 17.4271 4.14125 17.8667 4.14125 18.3062C7.15936 18.3062 10.1628 18.3062 13.1516 18.3062C16.1698 18.3062 19.1732 18.3062 22.162 18.3062C25.1801 18.3062 28.1836 18.3062 31.1724 18.3062C34.1905 18.3062 37.2087 18.3062 40.2268 18.3062C40.2268 17.8667 40.2268 17.4271 40.2268 16.9876C40.2268 16.5481 40.2268 16.1085 40.2268 15.669ZM39.4796 31.3163C40.0656 30.7303 40.3147 29.7487 40.2268 28.3715C40.1389 26.9943 40.1389 25.8808 40.2268 25.031C37.2087 25.031 34.1905 25.031 31.1724 25.031C28.1836 25.031 25.1948 25.031 22.206 25.031C19.2172 25.031 16.2284 25.031 13.2395 25.031C10.2507 25.031 7.26192 25.031 4.27311 25.031C4.1266 25.031 4.03869 25.0896 4.00939 25.2068C3.98009 25.2948 3.96544 25.3827 3.96544 25.4706C4.05334 26.4668 4.08265 27.6096 4.05334 28.8989C4.02404 30.1589 4.34636 31.0087 5.02031 31.4482C5.60635 31.8877 6.79309 32.0928 8.58052 32.0635C10.3679 32.0342 11.9503 32.0196 13.3275 32.0196C14.8805 32.0196 16.3749 32.0196 17.8107 32.0196C19.2758 32.0196 20.7262 32.0196 22.162 32.0196C23.6271 32.0196 25.0922 32.0196 26.5573 32.0196C28.0517 32.0196 29.5901 32.0196 31.1724 32.0196C32.4031 32.0196 33.9415 32.0342 35.7875 32.0635C37.6628 32.0635 38.8935 31.8145 39.4796 31.3163ZM32.6229 23.4048C33.2382 23.4048 34.044 23.4341 35.0403 23.4927C36.0366 23.522 37.0182 23.522 37.9852 23.4927C38.9814 23.4634 39.8605 23.3755 40.6223 23.229C41.3842 23.0531 41.8384 22.7748 41.9849 22.3938C42.2779 21.5148 42.1314 20.8994 41.5454 20.5478C40.9886 20.1962 40.2268 19.9911 39.2598 19.9325C38.2928 19.8446 37.238 19.8446 36.0952 19.9325C34.9524 20.0204 33.9415 20.0643 33.0624 20.0643C31.275 20.0643 29.5755 20.0643 27.9638 20.0643C26.3522 20.0643 24.7553 20.0643 23.173 20.0643C21.6199 20.0643 20.0376 20.0643 18.426 20.0643C16.8144 20.0643 15.1149 20.0643 13.3275 20.0643C12.1554 20.0643 10.4119 19.9764 8.09703 19.8006C5.78217 19.5955 4.21451 19.6834 3.39405 20.0643C2.80801 20.328 2.48568 20.7383 2.42708 21.295C2.36847 21.8518 2.45638 22.3059 2.6908 22.6576C2.92521 22.9506 3.45265 23.1557 4.27311 23.2729C5.12287 23.3901 6.04589 23.4634 7.04216 23.4927C8.06773 23.4927 9.064 23.478 10.031 23.4487C10.9979 23.4194 11.7598 23.4048 12.3165 23.4048C14.104 23.4048 15.8181 23.4048 17.459 23.4048C19.1293 23.4048 20.7848 23.4048 22.4257 23.4048C24.0667 23.4048 25.7222 23.4048 27.3925 23.4048C29.0627 23.4048 30.8061 23.4048 32.6229 23.4048ZM14.7779 5.86747C14.3677 5.28143 14.3823 4.71004 14.8219 4.1533C15.2614 3.59656 15.8914 3.53795 16.7118 3.97748C17.21 4.47562 17.1953 5.06166 16.6679 5.73561C16.1405 6.40956 15.5105 6.45351 14.7779 5.86747ZM12.6242 5.12027C13.2102 6.23375 12.9612 6.87839 11.877 7.0542C10.7928 7.20071 10.2068 6.80514 10.1189 5.86747C10.1189 5.66235 10.1628 5.45724 10.2507 5.25213C10.3679 5.01771 10.7196 4.82725 11.3056 4.68073C11.6572 4.53422 11.9356 4.51957 12.1407 4.63678C12.3751 4.75399 12.5363 4.91515 12.6242 5.12027ZM12.7561 8.63652C12.5216 7.46443 13.0491 7.0249 14.3384 7.31792C15.6277 7.58164 15.8328 8.27024 14.9537 9.38372C14.3677 9.58883 13.8695 9.61814 13.4593 9.47163C13.0491 9.29581 12.8147 9.01744 12.7561 8.63652Z" fill="#FCC3CC"/>
</svg>
