<svg width="26" height="45" viewBox="0 0 26 45" fill="none" xmlns="http://www.w3.org/2000/svg">
<path d="M18.6836 7.26331C19.6506 7.49773 20.6469 8.08377 21.6725 9.02144C22.698 9.9298 23.5038 10.97 24.0899 12.1421C24.6759 13.3142 24.9396 14.5156 24.881 15.7463C24.8517 16.977 24.2364 18.0172 23.035 18.8669C23.7676 19.5116 24.3096 20.2441 24.6613 21.0646C25.0422 21.8558 25.0862 22.7934 24.7931 23.8776C24.6173 24.112 24.2803 24.4636 23.7822 24.9325C23.2841 25.4013 23.035 25.6797 23.035 25.7676C23.035 26.0899 23.328 26.5001 23.9141 26.9983C24.5294 27.4964 24.8664 27.9799 24.925 28.4487C25.1008 29.152 25.0862 29.7673 24.881 30.2948C24.7052 30.7929 24.4562 31.2764 24.1338 31.7452C23.9873 31.8917 23.7676 32.1115 23.4745 32.4045C23.1815 32.6975 23.035 32.844 23.035 32.844C23.035 32.9905 23.328 33.4008 23.9141 34.0747C24.5294 34.7194 24.8664 35.1882 24.925 35.4812C25.3352 37.6203 25.2327 39.5396 24.6173 41.2391C24.002 42.9386 22.742 43.9495 20.8374 44.2718C19.7532 44.3597 18.4932 44.3744 17.0574 44.3158C15.6216 44.2865 14.2737 44.2718 13.0137 44.2718C10.3472 44.2718 7.84188 44.2279 5.49771 44.14C3.15354 44.0521 1.791 42.9532 1.41007 40.8435C1.08775 39.1733 1.05845 37.6056 1.32216 36.1405C1.61518 34.6754 2.27448 33.6205 3.30005 32.9759C2.74331 32.2726 2.24518 31.6573 1.80565 31.1299C1.39542 30.6024 1.26356 29.7087 1.41007 28.4487C1.49798 27.9799 1.83495 27.5111 2.42099 27.0422C3.00703 26.5441 3.30005 26.1778 3.30005 25.9434C3.30005 25.709 3.00703 25.3427 2.42099 24.8446C1.83495 24.3464 1.49798 23.819 1.41007 23.2623C1.26356 22.2367 1.38077 21.4162 1.7617 20.8009C2.14262 20.1562 2.65541 19.5116 3.30005 18.8669C2.24518 17.9293 1.67379 16.8451 1.58588 15.6144C1.49798 14.3837 1.71774 13.197 2.24518 12.0542C2.80192 10.8821 3.56377 9.8712 4.53074 9.02144C5.52701 8.14238 6.58189 7.61494 7.69537 7.43913C7.75397 5.85681 7.78327 4.43566 7.78327 3.17567C7.78327 1.91568 8.38397 1.08057 9.58535 0.670344C10.4351 0.377323 11.6072 0.230813 13.1016 0.230813C14.596 0.230813 15.7681 0.274766 16.6179 0.362672C18.0244 0.831506 18.669 1.75452 18.5518 3.13172C18.4639 4.47962 18.5078 5.85681 18.6836 7.26331ZM9.71721 2.56033C9.5707 3.11707 9.49745 3.76171 9.49745 4.49427C9.52675 5.22682 9.49745 5.94472 9.40954 6.64797C10.6695 6.64797 11.9149 6.64797 13.1456 6.64797C14.4055 6.64797 15.6216 6.64797 16.7937 6.64797C16.7058 5.94472 16.6911 5.21217 16.7497 4.45031C16.8083 3.65916 16.7644 3.02916 16.6179 2.56033C15.8267 2.32591 14.6693 2.2087 13.1456 2.2087C11.6511 2.2087 10.5084 2.32591 9.71721 2.56033ZM22.2878 34.3824C21.8776 34.0894 21.2769 33.8989 20.4857 33.811C19.7239 33.6938 19.3722 33.3715 19.4309 32.844C19.5188 32.4338 19.8411 32.214 20.3978 32.1847C20.9546 32.1554 21.4234 32.0529 21.8043 31.8771C22.5955 31.4082 23.0204 30.661 23.079 29.6355C23.1376 28.5806 22.8152 27.8187 22.112 27.3499C21.4966 26.8811 20.852 26.6759 20.1781 26.7345C19.5334 26.7932 19.2843 26.4708 19.4309 25.7676C19.6067 25.3867 20.0462 25.1522 20.7494 25.0643C21.4527 24.9471 21.9655 24.7713 22.2878 24.5369C23.0497 23.8922 23.3134 23.0718 23.079 22.0755C22.8445 21.0792 22.4197 20.4346 21.8043 20.1416C21.482 19.9072 21.0425 19.79 20.4857 19.79C19.9583 19.79 19.6067 19.5848 19.4309 19.1746C19.3722 18.5593 19.7971 18.1783 20.7055 18.0318C21.6139 17.8853 22.1852 17.6949 22.4197 17.4604C23.3573 16.6107 23.4892 15.4093 22.8152 13.8563C22.1413 12.3033 21.482 11.263 20.8374 10.7356C20.0169 9.94445 18.8741 9.34376 17.409 8.93353C15.9732 8.5233 14.4495 8.33284 12.8379 8.36214C11.2556 8.36214 9.73186 8.58191 8.26676 9.02144C6.83096 9.46097 5.70283 10.1349 4.88237 11.0433C4.14981 11.8344 3.56377 13.0065 3.12424 14.5595C2.68471 16.0832 3.05099 17.1528 4.22307 17.7681C4.6333 18.0025 5.14609 18.1197 5.76143 18.1197C6.37677 18.0904 6.65514 18.3981 6.59654 19.0428C6.59654 19.5116 6.21561 19.8046 5.45376 19.9218C4.72121 20.039 4.16447 20.2148 3.78354 20.4493C3.31471 20.9181 3.03634 21.5774 2.94843 22.4271C2.86052 23.2476 3.13889 23.8922 3.78354 24.3611C4.07656 24.6834 4.61865 24.9032 5.4098 25.0204C6.20096 25.1376 6.59654 25.3867 6.59654 25.7676C6.65514 26.4708 6.34747 26.8078 5.67352 26.7785C5.02888 26.7199 4.39888 26.9543 3.78354 27.4818C3.05099 28.0385 2.78727 28.815 2.99238 29.8113C3.2268 30.8075 3.69563 31.4961 4.39888 31.8771C5.24864 32.3459 5.82003 32.4924 6.11305 32.3166C6.43538 32.1408 6.59654 32.3605 6.59654 32.9759C6.59654 33.5326 6.11305 33.9136 5.14609 34.1187C4.17912 34.3238 3.60773 34.6315 3.43191 35.0417C3.13889 35.5105 2.99238 36.4482 2.99238 37.8547C3.02168 39.2319 3.06564 40.1256 3.12424 40.5358C3.44656 42.0009 4.61865 42.7042 6.64049 42.6456C8.69164 42.587 10.816 42.5577 13.0137 42.5577C15.5337 42.5577 17.7167 42.5723 19.5627 42.6016C21.4087 42.6602 22.5662 42.0156 23.035 40.6677C22.9764 39.5835 23.0204 38.4407 23.1669 37.2393C23.3427 36.038 23.0497 35.0856 22.2878 34.3824Z" fill="#FCC3CC"/>
</svg>
