<svg width="41" height="45" viewBox="0 0 41 45" fill="none" xmlns="http://www.w3.org/2000/svg">
<path d="M0.98434 17.2846C0.98434 17.1967 0.98434 17.1528 0.98434 17.1528C0.98434 17.1235 0.98434 17.0649 0.98434 16.977C1.16015 16.5081 1.59968 16.303 2.30293 16.3616C3.03549 16.4202 3.70943 16.4056 4.32478 16.3177C4.17827 14.3251 3.88525 12.3765 3.44571 10.4719C3.00618 8.53795 2.83037 6.60402 2.91828 4.67008C3.94385 4.43566 5.02803 4.23055 6.17081 4.05473C7.31359 3.84962 8.41242 3.5859 9.46729 3.26358C9.5259 2.85335 9.48194 2.38452 9.33543 1.85708C9.21823 1.30034 9.36474 0.860808 9.77496 0.538485C10.8884 0.450579 12.1777 0.362672 13.6428 0.274766C15.1079 0.18686 16.4705 0.216162 17.7305 0.362672C17.8184 0.772902 17.8916 1.18313 17.9502 1.59336C18.0382 2.00359 18.0821 2.44312 18.0821 2.91195C18.9612 2.91195 19.8549 2.91195 20.7632 2.91195C21.7009 2.91195 22.6093 2.91195 23.4883 2.91195C23.6642 2.53103 23.7081 2.03289 23.6202 1.41755C23.5616 0.772902 23.7374 0.377323 24.1476 0.230813C25.3197 0.230813 26.6969 0.274766 28.2792 0.362672C29.8908 0.450579 31.1655 0.772902 32.1032 1.32964C32.1032 2.1208 32.0299 2.99986 31.8834 3.96683C31.7369 4.9045 31.7076 5.72495 31.7955 6.4282C32.9969 6.60402 34.2715 6.69192 35.6194 6.69192C36.9966 6.66262 38.0075 6.99959 38.6522 7.70284C38.5643 9.13865 38.3445 10.5305 37.9929 11.8784C37.6705 13.2263 37.4654 14.6621 37.3775 16.1858C37.9343 16.2444 38.5496 16.2591 39.2236 16.2298C39.9268 16.1711 40.4835 16.2591 40.8938 16.4935C40.337 18.9255 39.751 21.343 39.1357 23.7457C38.5203 26.1192 37.8757 28.4927 37.2017 30.8661C36.5278 33.2103 35.8245 35.5398 35.092 37.8547C34.3887 40.1696 33.6562 42.4698 32.8943 44.7553C30.9897 44.8139 29.0264 44.8579 27.0046 44.8872C24.9827 44.9458 22.9609 44.9751 20.9391 44.9751C18.9172 44.9751 16.8954 44.9458 14.8735 44.8872C12.8517 44.8579 10.8884 44.8139 8.98381 44.7553C8.25126 42.5577 7.54801 40.3161 6.87406 38.0305C6.22941 35.7449 5.57012 33.4447 4.89617 31.1299C4.25152 28.815 3.60688 26.5001 2.96223 24.1853C2.31758 21.8704 1.65829 19.5702 0.98434 17.2846ZM11.1815 2.42847C11.3573 4.01078 11.5331 5.59309 11.7089 7.17541C11.8847 8.72842 12.0459 10.2961 12.1924 11.8784C12.3682 13.4607 12.5294 15.0577 12.6759 16.6693C12.8517 18.2516 12.9982 19.8486 13.1154 21.4602C13.848 21.929 14.6245 22.515 15.4449 23.2183C16.2947 23.8922 17.2763 24.156 18.3898 24.0095C18.1554 22.1927 17.9356 20.376 17.7305 18.5593C17.5547 16.7425 17.3789 14.9112 17.203 13.0651C17.0272 11.2191 16.8368 9.38771 16.6317 7.57098C16.4558 5.72495 16.2361 3.90822 15.9724 2.1208C15.0933 2.03289 14.2289 2.03289 13.3791 2.1208C12.5587 2.1794 11.8261 2.28196 11.1815 2.42847ZM25.5541 2.1208C25.3197 3.84962 25.1 5.63705 24.8948 7.48308C24.719 9.32911 24.5432 11.2044 24.3674 13.1091C24.2209 15.0137 24.1037 16.9183 24.0158 18.823C23.9279 20.6983 23.8546 22.5297 23.796 24.3171C24.763 23.9948 25.642 23.6285 26.4332 23.2183C27.2244 22.8081 27.8983 22.3246 28.455 21.7678C28.5136 20.1269 28.6309 18.5153 28.8067 16.933C28.9825 15.3507 29.1583 13.7684 29.3341 12.1861C29.5099 10.6038 29.6711 9.02144 29.8176 7.43913C29.9934 5.85681 30.1253 4.2452 30.2132 2.60428C29.3341 2.51638 28.5429 2.41382 27.8397 2.29661C27.1364 2.1794 26.3746 2.1208 25.5541 2.1208ZM18.214 5.32938C18.3019 6.85308 18.4484 8.4354 18.6535 10.0763C18.8586 11.6879 19.0344 13.2995 19.1809 14.9112C19.3567 16.4935 19.5033 18.1051 19.6205 19.746C19.7377 21.3576 20.0746 22.8813 20.6314 24.3171C20.7779 24.3171 20.9391 24.3171 21.1149 24.3171C21.2907 24.3171 21.4958 24.3171 21.7302 24.3171C21.906 22.7641 22.0525 21.1818 22.1697 19.5702C22.3163 17.9586 22.4481 16.3323 22.5653 14.6914C22.7118 13.0505 22.8437 11.3949 22.9609 9.72469C23.0781 8.02517 23.1953 6.3403 23.3125 4.67008C22.4628 4.67008 21.5984 4.67008 20.7193 4.67008C19.8402 4.67008 18.9612 4.67008 18.0821 4.67008C18.0821 4.84589 18.0821 4.97775 18.0821 5.06566C18.1114 5.15356 18.1554 5.24147 18.214 5.32938ZM11.1815 18.0758C10.8884 16.0246 10.6394 13.8709 10.4343 11.6147C10.2291 9.35841 10.0094 7.16076 9.77496 5.0217C8.8959 5.25612 8.01684 5.41728 7.13778 5.50519C6.28802 5.56379 5.46756 5.7103 4.6764 5.94472C4.91082 7.70284 5.15989 9.41702 5.42361 11.0872C5.71663 12.7575 5.93639 14.5009 6.0829 16.3177C6.72755 16.3177 7.41615 16.2884 8.1487 16.2298C8.88125 16.1711 9.5259 16.2591 10.0826 16.4935C10.3171 16.5814 10.4782 16.9183 10.5661 17.5044C10.6833 18.0611 10.8884 18.2516 11.1815 18.0758ZM30.5208 19.0428C30.7553 18.6325 30.9457 18.193 31.0922 17.7242C31.268 17.226 31.5611 16.8158 31.9713 16.4935C32.3522 16.347 32.8797 16.2884 33.5536 16.3177C34.2569 16.3177 34.8868 16.3177 35.4436 16.3177C35.6194 14.9698 35.8392 13.6805 36.1029 12.4498C36.3666 11.2191 36.5717 9.9591 36.7182 8.66981C35.8685 8.66981 35.0187 8.59656 34.1689 8.45005C33.3192 8.27423 32.4255 8.18633 31.4878 8.18633C31.3999 10.1203 31.2094 11.9956 30.9164 13.8123C30.6527 15.6291 30.5208 17.3725 30.5208 19.0428ZM10.0826 43.3049C11.8701 43.3049 13.6721 43.3049 15.4889 43.3049C17.3056 43.3049 19.1077 43.3049 20.8951 43.3049C22.7118 43.3049 24.5139 43.3049 26.3013 43.3049C28.0888 43.3049 29.8615 43.3049 31.6197 43.3049C32.235 41.1951 32.8357 39.1 33.4217 37.0196C34.0371 34.9098 34.6378 32.8147 35.2238 30.7343C35.8099 28.6245 36.3959 26.5148 36.9819 24.405C37.5973 22.2953 38.2126 20.1855 38.828 18.0758C37.861 18.0758 36.894 18.0758 35.9271 18.0758C34.9894 18.0758 34.0371 18.0758 33.0701 18.0758C32.1911 20.1562 30.9018 21.973 29.2022 23.526C27.5027 25.079 25.3344 25.9873 22.6972 26.2511C20.9391 26.3976 19.3274 26.295 17.8623 25.9434C16.3972 25.5918 15.0786 25.0497 13.9066 24.3171C12.7638 23.5846 11.7675 22.6909 10.9177 21.636C10.0973 20.5518 9.45264 19.3651 8.98381 18.0758C8.01684 18.1637 6.99127 18.1783 5.90709 18.1197C4.82291 18.0611 3.87059 18.1051 3.05014 18.2516C3.66548 20.332 4.26617 22.4271 4.85221 24.5369C5.43826 26.6173 6.0243 28.6978 6.61034 30.7782C7.22568 32.8587 7.81173 34.9538 8.36846 37.0635C8.95451 39.144 9.5259 41.2244 10.0826 43.3049Z" fill="#FCC3CC"/>
</svg>
