<svg width="45" height="45" viewBox="0 0 45 45" fill="none" xmlns="http://www.w3.org/2000/svg">
<path d="M0.372613 44.8432C0.226103 43.8177 0.372613 42.836 0.812145 41.8984C1.25168 40.9314 1.6326 40.0084 1.95493 39.1293C2.89259 36.9317 3.84491 34.7047 4.81188 32.4485C5.77885 30.1922 6.74582 27.9213 7.71279 25.6357C8.67975 23.3502 9.64672 21.0499 10.6137 18.7351C11.5807 16.3909 12.533 14.0321 13.4706 11.6586C13.793 10.8675 14.1739 10.0031 14.6134 9.06539C15.053 8.12772 15.4632 7.1461 15.8441 6.12053C16.0785 5.27077 16.4155 4.08404 16.855 2.56033C17.3239 1.00732 17.9978 0.304068 18.8769 0.450579C20.4885 0.714297 22.0562 1.16848 23.5799 1.81313C25.1329 2.42847 26.6126 3.16102 28.0191 4.01078C29.4549 4.83124 30.8028 5.7396 32.0628 6.73588C33.3521 7.73215 34.5242 8.74307 35.5791 9.76864C36.3116 10.4719 37.0295 11.2777 37.7328 12.1861C38.436 13.0944 39.11 14.076 39.7546 15.1309C40.4286 16.1565 41.0586 17.2407 41.6446 18.3835C42.2599 19.4969 42.8167 20.6251 43.3148 21.7678C43.5785 22.4711 43.9155 23.3502 44.3257 24.405C44.7653 25.4599 44.9118 26.2657 44.7653 26.8225C44.5895 27.3792 43.8423 27.8627 42.5237 28.2729C41.2051 28.6831 40.1062 29.0348 39.2272 29.3278C36.7951 30.1775 34.407 31.0566 32.0628 31.965C29.7186 32.8733 27.3891 33.811 25.0743 34.778C22.7887 35.7449 20.5178 36.7119 18.2615 37.6789C16.0053 38.6458 13.7344 39.6128 11.4488 40.5798C10.4818 40.9607 9.52951 41.3416 8.59185 41.7226C7.68348 42.1035 6.78977 42.4551 5.91071 42.7774C5.03164 43.2463 4.13793 43.7151 3.22957 44.1839C2.3505 44.6821 1.39819 44.9018 0.372613 44.8432ZM19.0087 2.03289C18.6864 2.97056 18.3787 3.87892 18.0857 4.75798C17.7927 5.60775 17.529 6.54541 17.2946 7.57098C19.7852 8.47935 22.0708 9.59283 24.1513 10.9114C26.2317 12.2007 28.1217 13.6951 29.8212 15.3946C31.5207 17.0649 33.0151 18.9548 34.3044 21.0646C35.623 23.145 36.7365 25.4306 37.6449 27.9213C38.6704 27.6869 39.6081 27.4231 40.4579 27.1301C41.3076 26.8078 42.1574 26.5001 43.0071 26.2071C42.0402 23.1597 40.8095 20.376 39.3151 17.856C37.8207 15.3067 36.0772 13.0358 34.0847 11.0433C32.0921 9.02144 29.8359 7.26331 27.3159 5.76891C24.8252 4.2745 22.0562 3.02916 19.0087 2.03289ZM16.5034 9.1533C16.1811 9.94445 15.8588 10.7356 15.5364 11.5268C15.2141 12.2886 14.9064 13.0651 14.6134 13.8563C16.3422 13.8563 17.7341 14.2665 18.789 15.087C19.8438 15.9074 20.4445 17.0356 20.5911 18.4714C20.7376 19.8486 20.4738 21.0206 19.7999 21.9876C19.1552 22.9546 18.3055 23.6432 17.2506 24.0534C16.225 24.4343 15.1262 24.5076 13.9541 24.2732C12.782 24.0388 11.7858 23.4088 10.9653 22.3832C10.4086 23.5846 9.89579 24.8299 9.42696 26.1192C8.98743 27.4085 8.44534 28.6392 7.80069 29.8113C9.17789 29.782 10.1742 30.1775 10.7895 30.998C11.4048 31.7892 11.6686 32.6682 11.5807 33.6352C11.5221 34.5729 11.1265 35.408 10.3939 36.1405C9.66137 36.8731 8.6358 37.1368 7.31721 36.9317C6.84837 36.8438 6.4528 36.668 6.13047 36.4042C5.83745 36.1112 5.50048 35.9647 5.11955 35.9647C4.79723 37.0782 4.3577 38.1917 3.80096 39.3051C3.24422 40.3893 2.89259 41.4442 2.74608 42.4698C3.88886 41.9423 5.06095 41.4442 6.26233 40.9754C7.46372 40.5065 8.65045 40.0377 9.82254 39.5689C11.0239 39.1 12.2107 38.6165 13.3827 38.1184C14.5548 37.591 15.6976 37.0342 16.8111 36.4482C16.2543 36.1259 15.7855 35.8035 15.4046 35.4812C15.0237 35.1296 14.7599 34.7194 14.6134 34.2505C13.8809 32.4338 14.0127 31.0273 15.009 30.031C16.0346 29.0348 17.2213 28.5073 18.5692 28.4487C19.9464 28.3608 21.1478 28.7857 22.1734 29.7234C23.2282 30.6317 23.4334 32.0822 22.7887 34.0747C23.9022 33.6352 25.001 33.1957 26.0852 32.7561C27.1987 32.3166 28.2975 31.8771 29.3817 31.4375C30.4659 30.9687 31.5647 30.5145 32.6782 30.075C33.7916 29.6062 34.9198 29.152 36.0626 28.7124C35.2128 26.339 34.1579 24.156 32.8979 22.1634C31.6672 20.1416 30.2314 18.3102 28.5905 16.6693C26.9496 15.0284 25.1182 13.5779 23.0964 12.3179C21.1038 11.0579 18.9062 10.0031 16.5034 9.1533ZM16.1518 22.7348C17.3825 22.5004 18.1736 21.8997 18.5253 20.9327C18.9062 19.9658 18.9501 19.0134 18.6571 18.0758C18.3641 17.1381 17.7781 16.4056 16.899 15.8781C16.0492 15.3214 15.0237 15.336 13.8223 15.9221C13.412 16.5667 13.0458 17.27 12.7234 18.0318C12.4304 18.7937 12.1521 19.5702 11.8883 20.3613C12.2986 21.2111 12.87 21.8558 13.6025 22.2953C14.3644 22.7348 15.2141 22.8813 16.1518 22.7348ZM16.1518 32.6682C16.2397 34.4849 17.2067 35.364 19.0527 35.3054C20.8987 35.2175 21.7778 34.2359 21.6899 32.3605C21.6313 31.4815 21.265 30.8368 20.5911 30.4266C19.9464 29.9871 19.1113 29.8845 18.0857 30.1189C17.2067 30.2948 16.6499 30.6464 16.4155 31.1738C16.1811 31.7013 16.0932 32.1994 16.1518 32.6682ZM9.86649 32.9759C9.69068 31.9503 9.00208 31.5547 7.80069 31.7892C6.62861 31.9943 6.15977 32.8147 6.39419 34.2505C7.00954 35.1882 7.80069 35.4519 8.76766 35.0417C9.73463 34.6022 10.1009 33.9136 9.86649 32.9759Z" fill="#FCC3CC"/>
</svg>
