<svg width="45" height="45" viewBox="0 0 45 45" fill="none" xmlns="http://www.w3.org/2000/svg">
<path d="M7.97844 15.3507C7.97844 14.2958 8.22751 13.1823 8.72564 12.0103C9.25308 10.8382 10.0149 10.0177 11.0112 9.54888C10.3373 8.40609 9.61936 7.16076 8.8575 5.81286C8.12495 4.43566 7.87588 2.868 8.1103 1.10988C8.96006 0.582438 9.44355 0.699646 9.56075 1.4615C9.67796 2.19405 9.80982 2.8973 9.95633 3.57125C10.1907 4.47962 10.5131 5.32938 10.9233 6.12053C11.3628 6.88239 11.6998 7.40982 11.9342 7.70284C12.6375 6.56006 13.414 5.56379 14.2637 4.71403C15.1428 3.86427 16.4614 3.48334 18.2195 3.57125C19.3037 3.57125 20.3586 3.82032 21.3841 4.31845C22.439 4.81659 23.4499 5.43193 24.4169 6.16448C25.3839 6.89704 26.2776 7.68819 27.0981 8.53795C27.9185 9.38771 28.6364 10.1789 29.2518 10.9114C30.7755 12.6695 32.0355 14.5888 33.0317 16.6693C34.028 18.7204 35.0682 20.5811 36.1524 22.2513C34.1892 23.7164 31.6252 24.7127 28.4606 25.2401C25.3253 25.7383 22.2486 25.7236 19.2304 25.1962C16.2123 24.6688 13.5898 23.5992 11.3628 21.9876C9.16518 20.376 8.03705 18.1637 7.97844 15.3507ZM11.9342 10.9114C10.938 11.3803 10.264 12.23 9.91238 13.4607C9.56075 14.6914 9.5754 15.8342 9.95633 16.889C10.5717 18.7351 11.8317 20.2002 13.7363 21.2844C15.6409 22.3685 17.78 23.1011 20.1535 23.482C22.5562 23.8336 24.9883 23.8629 27.4497 23.5699C29.9404 23.2476 32.0648 22.603 33.8229 21.636C33.2075 20.376 32.4603 18.9695 31.5813 17.4165C30.7022 15.8635 29.6913 14.3398 28.5485 12.8454C27.435 11.351 26.219 9.98841 24.9004 8.75772C23.5818 7.49773 22.1753 6.53076 20.6809 5.85681C20.5051 5.7103 20.256 5.57844 19.9337 5.46123C19.6407 5.31472 19.377 5.24147 19.1425 5.24147C17.7653 5.03635 16.4321 5.38798 15.1428 6.29634C13.8535 7.17541 13.2528 8.15703 13.3407 9.2412C13.3993 9.71004 13.8096 10.2521 14.5714 10.8675C15.3333 11.4535 15.934 11.937 16.3735 12.3179C17.6042 13.3728 18.7323 14.2812 19.7579 15.043C20.7835 15.8049 21.8969 16.5814 23.0983 17.3725C23.7137 17.7535 24.3876 18.1051 25.1202 18.4274C25.882 18.7204 26.3362 19.2772 26.4827 20.0976C25.8088 20.5665 25.1055 20.5665 24.373 20.0976C23.6697 19.5995 23.0544 19.1893 22.5269 18.8669C20.5344 17.7242 18.6444 16.4642 16.857 15.087C15.0988 13.6805 13.4579 12.2886 11.9342 10.9114ZM43.8002 20.8888C44.0933 21.8851 44.1665 22.9985 44.02 24.2292C43.9028 25.4599 43.6684 26.6759 43.3168 27.8773C42.9651 29.0494 42.5696 30.1482 42.13 31.1738C41.6905 32.1994 41.3242 33.0052 41.0312 33.5912C40.1814 35.1149 39.1119 36.6387 37.8226 38.1624C36.5333 39.6861 35.0536 40.8582 33.3833 41.6786C31.7717 42.5284 29.8817 43.1584 27.7134 43.5686C25.5743 43.9788 23.3767 44.1253 21.1204 44.0081C18.8935 43.9202 16.7398 43.5539 14.6593 42.9093C12.5789 42.294 10.8061 41.3856 9.34099 40.1842C8.1103 39.1879 7.04077 38.0158 6.13241 36.668C5.22405 35.2908 4.35963 33.7963 3.53918 32.1847C2.98244 31.1299 2.35244 29.5329 1.64919 27.3938C0.945941 25.2255 0.858035 23.1011 1.38547 21.0206C1.53198 20.4932 1.83965 20.0244 2.30849 19.6141C2.77732 19.2039 3.29011 18.8083 3.84685 18.4274C4.28638 18.1344 4.81382 17.7974 5.42916 17.4165C6.07381 17.0356 6.65985 17.1235 7.18729 17.6802C6.89426 18.9695 6.10311 19.6581 4.81382 19.746C3.55383 19.8339 2.92383 20.5665 2.92383 21.9437C2.83593 23.2329 3.78824 24.1999 5.78079 24.8446C7.77333 25.4892 9.5754 26.002 11.187 26.3829C13.3261 26.8518 15.6263 27.1887 18.0877 27.3938C20.549 27.5697 23.0104 27.6136 25.4718 27.5257C27.9625 27.4378 30.3652 27.1887 32.6801 26.7785C34.995 26.3683 37.0608 25.7822 38.8775 25.0204C39.5807 24.6394 40.2986 24.1999 41.0312 23.7018C41.7637 23.1743 42.174 22.6469 42.2619 22.1195C42.3205 20.4199 41.2217 19.3797 38.9654 18.9988C36.7384 18.5886 35.288 17.8853 34.614 16.889C34.614 16.8304 34.6433 16.7572 34.7019 16.6693C34.7605 16.5814 34.8338 16.5081 34.9217 16.4495C34.9217 16.3616 34.9657 16.2884 35.0536 16.2298C35.1708 16.1711 35.2733 16.1418 35.3612 16.1418C36.9729 16.6693 38.6431 17.2114 40.3719 17.7681C42.1007 18.2955 43.2435 19.3358 43.8002 20.8888ZM31.845 40.4919C33.3101 39.8179 34.5847 38.9682 35.6689 37.9426C36.7531 36.917 37.7054 35.7596 38.5259 34.4703C39.3463 33.1517 40.0349 31.7306 40.5917 30.2068C41.1777 28.6831 41.6758 27.1008 42.0861 25.4599C41.881 25.2255 41.6612 25.2401 41.4268 25.5039C41.1924 25.7383 40.9579 25.9287 40.7235 26.0753C38.3794 27.2766 35.5077 28.141 32.1087 28.6685C28.739 29.1666 25.2667 29.3717 21.6918 29.2838C18.117 29.1666 14.674 28.771 11.3628 28.0971C8.081 27.4231 5.37056 26.5001 3.2315 25.328C3.1436 25.2401 3.08499 25.1962 3.05569 25.1962C3.05569 25.1669 3.05569 25.1522 3.05569 25.1522C3.31941 26.588 3.70034 28.0092 4.19847 29.4157C4.72591 30.8222 5.3266 32.1554 6.00055 33.4154C6.7038 34.6754 7.49496 35.8328 8.37402 36.8877C9.25308 37.9133 10.1907 38.7484 11.187 39.393C12.4763 40.2428 14 40.9021 15.7581 41.3709C17.5163 41.8105 19.333 42.0742 21.2083 42.1621C23.113 42.25 24.9883 42.1621 26.8343 41.8984C28.6804 41.6054 30.3506 41.1365 31.845 40.4919Z" fill="#FCC3CC"/>
</svg>
