<svg width="46" height="35" viewBox="0 0 46 35" fill="none" xmlns="http://www.w3.org/2000/svg">
<path d="M44.4356 21.5148C44.8165 23.1557 44.714 24.4303 44.1279 25.3387C43.5419 26.2471 43.2049 27.1847 43.117 28.1517C42.824 29.7633 42.7068 31.0819 42.7654 32.1075C42.8533 33.1331 42.2379 33.8656 40.9194 34.3051C39.9524 34.6861 38.6045 34.8179 36.8757 34.7007C35.1761 34.5542 33.4766 34.481 31.7771 34.481C30.1362 34.481 28.5539 34.481 27.0302 34.481C25.5065 34.481 23.9974 34.481 22.503 34.481C21.0379 34.481 19.5581 34.481 18.0637 34.481C16.5986 34.481 15.1042 34.481 13.5805 34.481C12.0861 34.481 10.4452 34.5542 8.65776 34.7007C6.87033 34.8179 5.46383 34.6861 4.43826 34.3051C3.11966 33.8656 2.51897 33.0598 2.63618 31.8877C2.75339 30.6863 2.66548 29.397 2.37246 28.0198C2.16735 27.1994 1.75712 26.4668 1.14177 25.8222C0.555732 25.1482 0.335966 24.2545 0.482477 23.141C0.482477 23.0824 0.482477 23.0385 0.482477 23.0092C0.482477 22.9799 0.482477 22.9213 0.482477 22.8334C0.482477 21.6027 0.804799 20.6357 1.44945 19.9325C2.09409 19.2292 2.46037 18.4381 2.54827 17.559C2.69478 16.7385 2.68013 16.0499 2.50432 15.4932C2.35781 14.9365 2.31386 14.3944 2.37246 13.8669C2.46037 13.0758 2.72409 12.3286 3.16362 11.6253C3.63245 10.8928 4.15989 10.2774 4.74593 9.7793C5.33197 9.19326 5.91801 8.85628 6.50405 8.76838C7.1194 8.68047 7.74939 8.3728 8.39404 7.84536C8.83357 7.55234 9.17054 7.11281 9.40496 6.52677C9.63938 5.94072 9.9031 5.50119 10.1961 5.20817C10.4012 4.91515 10.7382 4.57818 11.207 4.19725C11.6759 3.81632 12.1594 3.50865 12.6575 3.27423C13.4193 2.98121 14.1079 2.8347 14.7233 2.8347C15.3386 2.8054 15.9833 2.7175 16.6572 2.57098C17.5363 2.27796 18.2542 1.89704 18.8109 1.4282C19.3677 0.930068 20.0123 0.563792 20.7449 0.329375C21.2137 0.182865 21.6239 0.10961 21.9756 0.10961C22.3565 0.0803078 22.7374 0.0656567 23.1183 0.0656567C24.4369 0.0656567 25.4332 0.38798 26.1071 1.03263C26.7811 1.67727 27.7481 2.19006 29.0081 2.57098C29.5941 2.7175 30.2094 2.8054 30.8541 2.8347C31.4987 2.8347 32.158 2.98121 32.832 3.27423C33.2715 3.50865 33.711 3.80167 34.1506 4.1533C34.6194 4.47562 34.9564 4.82725 35.1615 5.20817C35.5424 5.6477 35.8208 6.13119 35.9966 6.65863C36.2017 7.15676 36.524 7.55234 36.9636 7.84536C37.5496 8.28489 38.1357 8.54861 38.7217 8.63652C39.337 8.72442 39.8205 8.95884 40.1721 9.33977C40.6117 9.63279 41.0073 10.0284 41.3589 10.5265C41.7398 10.9953 42.0328 11.5228 42.2379 12.1088C42.6775 12.9879 42.8093 13.8523 42.6335 14.702C42.4577 15.5518 42.5163 16.6067 42.8093 17.8667C42.8972 18.5113 43.1463 19.0827 43.5565 19.5808C43.9961 20.079 44.2891 20.7236 44.4356 21.5148ZM2.54827 23.5806C2.60688 23.141 2.76804 22.3938 3.03176 21.339C3.32478 20.2841 3.39803 19.9032 3.25152 20.1962C3.19292 20.2841 3.04641 20.4599 2.81199 20.7236C2.57758 20.9873 2.38711 21.3097 2.2406 21.6906C2.1527 22.1887 2.1527 22.8187 2.2406 23.5806C2.35781 24.3131 2.46037 24.3131 2.54827 23.5806ZM6.63591 10.3507C5.46383 11.0246 4.68733 12.0502 4.3064 13.4274C3.92547 14.7753 3.92547 16.299 4.3064 17.9985C5.15616 16.3869 6.15243 14.8632 7.29521 13.4274C8.46729 11.9916 9.81519 10.7463 11.3389 9.69139C12.8919 8.63652 14.6207 7.80141 16.5254 7.18606C18.4593 6.54142 20.613 6.21909 22.9865 6.21909C25.2134 6.21909 27.2353 6.54142 29.052 7.18606C30.898 7.80141 32.5536 8.65117 34.0187 9.73534C35.5131 10.7902 36.8171 12.0209 37.9305 13.4274C39.0733 14.8339 40.0696 16.3137 40.9194 17.8667C41.2124 16.3723 41.227 14.9804 40.9633 13.6911C40.6996 12.4018 40.0989 11.3909 39.1612 10.6584C38.4873 10.2188 37.8426 9.95511 37.2273 9.8672C36.6119 9.7793 36.0699 9.54488 35.601 9.16395C35.1615 8.87093 34.8099 8.38745 34.5461 7.7135C34.3117 7.03955 33.9308 6.45351 33.4034 5.95538C32.7587 5.22282 31.9383 4.8419 30.942 4.81259C29.975 4.75399 28.9348 4.53422 27.8213 4.1533C27.2353 3.94818 26.6932 3.61121 26.1951 3.14238C25.7262 2.67354 25.1988 2.33657 24.6127 2.13145C22.8253 1.45751 21.4628 1.54541 20.5251 2.39517C19.6167 3.21563 18.5765 3.80167 17.4044 4.1533C16.6426 4.38771 15.7782 4.54888 14.8112 4.63678C13.8442 4.69539 12.9798 4.98841 12.218 5.51584C11.5733 6.01398 11.0752 6.65863 10.7236 7.44978C10.3719 8.24094 9.94705 8.81233 9.44891 9.16395C9.00938 9.54488 8.54055 9.7793 8.04241 9.8672C7.54428 9.95511 7.07545 10.1163 6.63591 10.3507ZM40.7875 32.547C41.0805 31.2284 41.2563 29.9391 41.3149 28.6791C41.4028 27.4192 41.3735 26.1592 41.227 24.8992C41.0219 22.5257 40.3919 20.2987 39.337 18.2183C38.3115 16.1378 36.9489 14.3358 35.2494 12.8121C33.5499 11.2884 31.5866 10.1016 29.3597 9.25186C27.162 8.3728 24.7886 7.94792 22.2393 7.97722C19.8365 8.03582 17.5802 8.50466 15.4705 9.38372C13.3607 10.2335 11.5001 11.4202 9.88845 12.9439C8.27683 14.4383 6.95824 16.2111 5.93266 18.2623C4.93639 20.3134 4.3357 22.5257 4.13059 24.8992C4.07198 25.4266 4.05733 26.0859 4.08663 26.8771C4.11593 27.6389 4.13059 28.3129 4.13059 28.8989C4.13059 29.2505 4.11593 29.8805 4.08663 30.7889C4.05733 31.668 4.21849 32.254 4.57012 32.547C5.09755 32.9865 6.4308 33.1477 8.56985 33.0305C10.7089 32.9133 12.3205 32.8547 13.4047 32.8547C15.7489 32.8547 18.093 32.8693 20.4372 32.8986C22.8107 32.9279 25.1548 32.9426 27.4697 32.9426C29.7846 32.9426 32.0555 32.9133 34.2824 32.8547C36.5094 32.7961 38.6777 32.6935 40.7875 32.547ZM42.9851 24.0201C43.0438 23.229 42.9558 22.3645 42.7214 21.4269C42.487 20.4599 42.1793 20.0497 41.7984 20.1962C42.1793 20.7236 42.4138 21.3536 42.5017 22.0862C42.5896 22.7894 42.7507 23.4341 42.9851 24.0201ZM15.6024 21.0753C15.7489 22.3352 15.1335 23.0238 13.7563 23.141C12.4084 23.2583 11.8077 22.5697 11.9542 21.0753C11.9542 20.7822 12.0861 20.5039 12.3498 20.2401C12.6428 19.9764 13.0531 19.7713 13.5805 19.6248C14.2252 19.5369 14.7086 19.6541 15.031 19.9764C15.3533 20.2694 15.5437 20.6357 15.6024 21.0753ZM9.44891 23.5806C10.035 23.522 10.4452 23.6099 10.6796 23.8443C10.9433 24.0787 11.1191 24.3864 11.207 24.7673C11.4415 26.0859 10.8701 26.8331 9.49287 27.0089C8.14497 27.1554 7.58823 26.4522 7.82265 24.8992C7.82265 24.4596 7.93986 24.1373 8.17427 23.9322C8.43799 23.6978 8.86287 23.5806 9.44891 23.5806ZM14.02 26.0859C15.6317 25.4999 16.4082 25.8954 16.3496 27.2726C16.3203 28.6498 15.8368 29.3384 14.8991 29.3384C14.2252 29.397 13.6098 28.9868 13.0531 28.1078C12.4963 27.1994 12.8187 26.5254 14.02 26.0859Z" fill="#FCC3CC"/>
</svg>
