<svg width="28" height="43" viewBox="0 0 28 43" fill="none" xmlns="http://www.w3.org/2000/svg">
<path d="M1.16719 11.3398C1.51882 7.91142 3.08648 5.31819 5.87018 3.56006C8.68318 1.80194 11.7013 0.937527 14.9245 0.966829C18.1477 0.996131 21.078 1.94845 23.7151 3.82378C26.3523 5.66981 27.7002 8.51211 27.7588 12.3507C27.7588 12.4093 27.7588 12.4679 27.7588 12.5265C27.7588 12.5851 27.7588 12.6144 27.7588 12.6144C27.6709 14.1381 27.5537 15.7644 27.4072 17.4932C27.29 19.222 27.1288 20.9802 26.9237 22.7676C26.7479 24.555 26.5428 26.3278 26.3084 28.0859C26.074 29.8147 25.8395 31.4263 25.6051 32.9208C25.4586 34.0635 25.3121 35.1917 25.1656 36.3051C25.0484 37.4186 24.814 38.3416 24.4623 39.0742C23.7298 40.4221 22.4552 41.2572 20.6384 41.5795C18.8217 41.9018 16.8145 42.063 14.6168 42.063C13.181 42.0044 11.7159 41.9604 10.2215 41.9311C8.72713 41.9018 7.51109 41.7114 6.57343 41.3597C5.07902 40.6272 4.21461 39.4258 3.98019 37.7556C3.74577 36.0854 3.52601 34.2833 3.32089 32.3494C2.93997 29.9759 2.60299 27.6757 2.30997 25.4487C2.04625 23.1925 1.81184 20.9215 1.60672 18.636C1.51882 17.4932 1.38696 16.3211 1.21114 15.1197C1.03533 13.889 1.02068 12.6291 1.16719 11.3398ZM5.60646 5.75772C4.8153 6.49027 4.0974 7.54515 3.45275 8.92234C2.80811 10.2995 3.08648 11.3398 4.28786 12.043C5.07902 10.6951 6.07529 9.58164 7.27668 8.70258C8.47806 7.79421 10.0164 7.19352 11.8918 6.9005C11.7452 6.69539 11.6427 6.43167 11.5841 6.10934C11.5255 5.78702 11.5255 5.47935 11.5841 5.18633C12.9613 4.7761 14.2213 4.84935 15.3641 5.40609C16.5361 5.96283 17.5178 6.56353 18.3089 7.20817C19.8912 6.91515 21.1512 7.17887 22.0889 7.99933C23.0558 8.79048 23.8031 9.7135 24.3305 10.7684C25.3268 9.7135 25.4293 8.58537 24.6382 7.38398C23.8763 6.1533 23.0998 5.28889 22.3086 4.79075C21.3124 3.99959 20.0524 3.4282 18.5287 3.07658C17.0343 2.69565 15.4813 2.54914 13.8696 2.63705C12.2873 2.72495 10.749 3.03263 9.25457 3.56006C7.78946 4.0582 6.57343 4.79075 5.60646 5.75772ZM12.4631 11.3398C12.3166 11.0467 12.2727 10.6219 12.3313 10.0651C12.3899 9.47908 12.3752 8.9956 12.2873 8.61467C10.5878 8.70258 9.23992 9.14211 8.24364 9.93327C7.24737 10.6951 6.45622 11.6914 5.87018 12.9221C7.15947 13.2737 8.44876 13.6546 9.73805 14.0649C11.0566 14.4751 12.2434 15.0025 13.2983 15.6472C14.3824 14.4165 15.8475 13.6253 17.6936 13.2737C19.5689 12.9221 21.2977 12.4239 22.88 11.7793C22.587 10.8416 22.1621 10.1091 21.6054 9.58164C21.078 9.0249 20.3161 8.70258 19.3198 8.61467C19.3198 9.0542 19.4077 9.36188 19.5836 9.53769C19.7594 9.6842 19.818 10.0065 19.7594 10.5047C19.5249 10.6219 19.3638 10.7537 19.2759 10.9002C19.2173 11.0174 19.0415 11.076 18.7484 11.076C18.0159 10.197 17.3419 9.25932 16.7266 8.26305C16.1113 7.26678 15.0124 6.76864 13.4301 6.76864C13.5766 7.41329 13.7671 8.42421 14.0015 9.80141C14.2652 11.1786 13.7524 11.6914 12.4631 11.3398ZM5.73832 38.5028C6.29506 39.5577 7.23272 40.1144 8.55132 40.173C9.86991 40.2316 11.1739 40.3342 12.4631 40.4807C11.379 39.2793 10.5732 37.6384 10.0457 35.5579C9.51828 33.4775 9.25457 31.2945 9.25457 29.0089C9.25457 26.7234 9.48898 24.4964 9.95782 22.328C10.456 20.1597 11.1885 18.3576 12.1555 16.9218C10.7197 16.1307 9.10806 15.53 7.32063 15.1197C5.5625 14.6802 4.0388 13.9916 2.7495 13.0539C2.80811 14.4604 2.91067 15.9695 3.05718 17.5811C3.20369 19.1927 3.36485 20.8483 3.54066 22.5478C3.74577 24.218 3.95089 25.9029 4.156 27.6024C4.36112 29.2726 4.55158 30.855 4.72739 32.3494C4.96181 33.4335 5.09367 34.547 5.12297 35.6898C5.18158 36.8326 5.38669 37.7702 5.73832 38.5028ZM23.891 32.3494C24.1254 30.8843 24.3744 29.1994 24.6382 27.2948C24.9312 25.3901 25.1802 23.4855 25.3854 21.5808C25.5905 19.6469 25.7223 17.8009 25.7809 16.0428C25.8395 14.2846 25.7809 12.8195 25.6051 11.6474C24.4623 13.1418 22.7189 13.9477 20.3747 14.0649C18.0598 14.1821 16.1845 14.8414 14.7487 16.0428C14.1041 16.6288 13.5327 17.4639 13.0345 18.5481C12.5364 19.6323 12.1555 20.7018 11.8918 21.7567C11.3057 23.4855 10.9248 25.3022 10.749 27.2068C10.6025 29.0822 10.6611 30.8989 10.9248 32.657C11.2178 34.3859 11.7306 35.9535 12.4631 37.36C13.1957 38.7372 14.192 39.7774 15.452 40.4807C16.7412 40.2756 18.0452 40.2023 19.3638 40.2609C20.7117 40.3488 21.7373 39.9972 22.4405 39.206C22.9386 38.62 23.261 37.6237 23.4075 36.2172C23.5833 34.7814 23.7444 33.4921 23.891 32.3494ZM15.3201 20.9215C16.668 20.4234 17.3859 20.8043 17.4738 22.0643C17.591 23.3243 17.1515 23.9836 16.1552 24.0422C15.3641 24.1301 14.7927 23.7492 14.441 22.8994C14.0894 22.0204 14.3824 21.3611 15.3201 20.9215ZM18.3089 25.7564C18.514 25.6978 18.7045 25.7124 18.8803 25.8003C19.0854 25.8883 19.2319 26.0641 19.3198 26.3278C19.5249 27.412 19.1294 27.6903 18.1331 27.1629C17.1661 26.6062 17.2247 26.1373 18.3089 25.7564Z" fill="#FCC3CC"/>
</svg>
